<svg xmlns="http://www.w3.org/2000/svg" xmlns:svg="http://www.w3.org/2000/svg" xmlns:xlink="http://www.w3.org/1999/xlink" id="svg1337" width="48" height="48" version="1.1"><defs id="defs3"><radialGradient id="radialGradient6719" cx="605.714" cy="486.648" r="117.143" fx="605.714" fy="486.648" gradientTransform="matrix(-2.774389,0,0,1.969706,112.7623,-872.8854)" gradientUnits="userSpaceOnUse" xlink:href="#linearGradient5060"/><linearGradient id="linearGradient5060"><stop id="stop5062" offset="0" stop-color="#000" stop-opacity="1"/><stop id="stop5064" offset="1" stop-color="#000" stop-opacity="0"/></linearGradient><radialGradient id="radialGradient6717" cx="605.714" cy="486.648" r="117.143" fx="605.714" fy="486.648" gradientTransform="matrix(2.774389,0,0,1.969706,-1891.633,-872.8854)" gradientUnits="userSpaceOnUse" xlink:href="#linearGradient5060"/><linearGradient id="linearGradient5048"><stop id="stop5050" offset="0" stop-color="#000" stop-opacity="0"/><stop id="stop5056" offset=".5" stop-color="#000" stop-opacity="1"/><stop id="stop5052" offset="1" stop-color="#000" stop-opacity="0"/></linearGradient><linearGradient id="linearGradient6715" x1="302.857" x2="302.857" y1="366.648" y2="609.505" gradientTransform="matrix(2.774389,0,0,1.969706,-1892.179,-872.8854)" gradientUnits="userSpaceOnUse" xlink:href="#linearGradient5048"/><linearGradient id="linearGradient4542"><stop id="stop4544" offset="0" stop-color="#000" stop-opacity="1"/><stop id="stop4546" offset="1" stop-color="#000" stop-opacity="0"/></linearGradient><radialGradient id="radialGradient4548" cx="24.307" cy="42.078" r="15.822" fx="24.307" fy="42.078" gradientTransform="matrix(1.000000,0.000000,0.000000,0.284916,-7.147040e-16,30.08928)" gradientUnits="userSpaceOnUse" xlink:href="#linearGradient4542"/><linearGradient id="linearGradient2736"><stop id="stop2738" offset="0" stop-color="#5a7aa4" stop-opacity="1"/><stop id="stop2740" offset="1" stop-color="#3b516c" stop-opacity="1"/></linearGradient><linearGradient id="linearGradient6976"><stop id="stop6978" offset="0" stop-color="#c1c3ae" stop-opacity="1"/><stop id="stop6980" offset="1" stop-color="#818373" stop-opacity="1"/></linearGradient><linearGradient id="linearGradient6982" x1="5.993" x2="27.987" y1="21.553" y2="50.645" gradientTransform="matrix(1.444094,0.000000,0.000000,0.692475,-0.875000,-0.750000)" gradientUnits="userSpaceOnUse" xlink:href="#linearGradient6976"/><linearGradient id="linearGradient2748" x1="6.521" x2="6.597" y1="35.292" y2="37.515" gradientTransform="matrix(-1.094203,0.000000,0.000000,0.913907,49.42097,-0.750000)" gradientUnits="userSpaceOnUse" xlink:href="#linearGradient2736"/><linearGradient id="linearGradient2754" x1="6.521" x2="6.597" y1="35.292" y2="37.515" gradientTransform="matrix(-1.094203,0.000000,0.000000,0.913907,49.47622,-0.893632)" gradientUnits="userSpaceOnUse" xlink:href="#linearGradient2736"/><linearGradient id="linearGradient2760" x1="6.521" x2="6.597" y1="35.292" y2="37.515" gradientTransform="matrix(1.094203,0.000000,0.000000,0.913907,-2.051744,-0.893632)" gradientUnits="userSpaceOnUse" xlink:href="#linearGradient2736"/><linearGradient id="linearGradient2764" x1="6.521" x2="6.597" y1="35.292" y2="37.515" gradientTransform="matrix(-1.094203,0.000000,0.000000,0.913907,49.42097,-0.750000)" gradientUnits="userSpaceOnUse" xlink:href="#linearGradient2736"/><linearGradient id="linearGradient3931" x1="5.993" x2="27.987" y1="21.553" y2="50.645" gradientTransform="matrix(1.444094,0,0,0.692475,-0.875,-0.75)" gradientUnits="userSpaceOnUse" xlink:href="#linearGradient6976"/><linearGradient id="linearGradient3933" x1="6.521" x2="6.597" y1="35.292" y2="37.515" gradientTransform="matrix(-1.094203,0,0,0.913907,49.42097,-0.75)" gradientUnits="userSpaceOnUse" xlink:href="#linearGradient2736"/><linearGradient id="linearGradient3935" x1="6.521" x2="6.597" y1="35.292" y2="37.515" gradientTransform="matrix(-1.094203,0,0,0.913907,49.42097,-0.75)" gradientUnits="userSpaceOnUse" xlink:href="#linearGradient2736"/><linearGradient id="linearGradient3937" x1="6.521" x2="6.597" y1="35.292" y2="37.515" gradientTransform="matrix(-1.094203,0,0,0.913907,49.47622,-0.893632)" gradientUnits="userSpaceOnUse" xlink:href="#linearGradient2736"/><linearGradient id="linearGradient3939" x1="6.521" x2="6.597" y1="35.292" y2="37.515" gradientTransform="matrix(1.094203,0,0,0.913907,-2.051744,-0.893632)" gradientUnits="userSpaceOnUse" xlink:href="#linearGradient2736"/><linearGradient id="linearGradient3973" x1="5.993" x2="27.987" y1="21.553" y2="50.645" gradientTransform="matrix(1.444094,0,0,0.692475,-0.875,-0.75)" gradientUnits="userSpaceOnUse" xlink:href="#linearGradient6976"/><radialGradient id="radialGradient3010" cx="23.563" cy="40.438" r="19.563" fx="23.563" fy="40.438" gradientTransform="matrix(1,0,0,0.348243,0,26.35543)" gradientUnits="userSpaceOnUse" xlink:href="#linearGradient2865"/><linearGradient id="linearGradient2865"><stop id="stop2867" offset="0" stop-color="#000" stop-opacity="1"/><stop id="stop2869" offset="1" stop-color="#000" stop-opacity="0"/></linearGradient><linearGradient id="linearGradient2972" x1="48.906" x2="50.988" y1="17.376" y2="22.251" gradientTransform="translate(-5.669292,0)" gradientUnits="userSpaceOnUse" xlink:href="#linearGradient2966"/><linearGradient id="linearGradient2966"><stop id="stop2968" offset="0" stop-color="#ffd1d1" stop-opacity="1"/><stop id="stop3006" offset=".5" stop-color="#ff1d1d" stop-opacity="1"/><stop id="stop2970" offset="1" stop-color="#6f0000" stop-opacity="1"/></linearGradient><linearGradient id="linearGradient2980" x1="46" x2="47.688" y1="19.813" y2="22.625" gradientTransform="translate(-5.669292,0)" gradientUnits="userSpaceOnUse" xlink:href="#linearGradient2974"/><linearGradient id="linearGradient2974"><stop id="stop2976" offset="0" stop-color="#c1c1c1" stop-opacity="1"/><stop id="stop2978" offset="1" stop-color="#acacac" stop-opacity="1"/></linearGradient><radialGradient id="radialGradient2990" cx="29.053" cy="27.641" r="3.241" fx="29.053" fy="27.641" gradientTransform="matrix(2.923565,0,0,2.029717,-61.55532,-27.88417)" gradientUnits="userSpaceOnUse" xlink:href="#linearGradient2984"/><linearGradient id="linearGradient2984"><stop id="stop2986" offset="0" stop-color="#e7e2b8" stop-opacity="1"/><stop id="stop2988" offset="1" stop-color="#e7e2b8" stop-opacity="0"/></linearGradient><linearGradient id="linearGradient3000" x1="25.719" x2="25.515" y1="31.047" y2="30.703" gradientTransform="translate(-5.825542,0.125)" gradientUnits="userSpaceOnUse" xlink:href="#linearGradient2994"/><linearGradient id="linearGradient2994"><stop id="stop2996" offset="0" stop-color="#000" stop-opacity="1"/><stop id="stop2998" offset="1" stop-color="#c9c9c9" stop-opacity="1"/></linearGradient><radialGradient id="radialGradient3134" cx="23.563" cy="40.438" r="19.563" fx="23.563" fy="40.438" gradientTransform="matrix(1,0,0,0.348243,0,26.35543)" gradientUnits="userSpaceOnUse" xlink:href="#linearGradient2865"/><linearGradient id="linearGradient3136" x1="48.906" x2="50.988" y1="17.376" y2="22.251" gradientTransform="translate(-5.669292,0)" gradientUnits="userSpaceOnUse" xlink:href="#linearGradient2966"/><linearGradient id="linearGradient3138" x1="46" x2="47.688" y1="19.813" y2="22.625" gradientTransform="translate(-5.669292,0)" gradientUnits="userSpaceOnUse" xlink:href="#linearGradient2974"/><radialGradient id="radialGradient3140" cx="29.053" cy="27.641" r="3.241" fx="29.053" fy="27.641" gradientTransform="matrix(2.923565,0,0,2.029717,-61.55532,-27.88417)" gradientUnits="userSpaceOnUse" xlink:href="#linearGradient2984"/><linearGradient id="linearGradient3142" x1="25.719" x2="25.515" y1="31.047" y2="30.703" gradientTransform="translate(-5.825542,0.125)" gradientUnits="userSpaceOnUse" xlink:href="#linearGradient2994"/><linearGradient id="linearGradient3147" x1="25.719" x2="25.515" y1="31.047" y2="30.703" gradientTransform="translate(-16.377647,-28.081652)" gradientUnits="userSpaceOnUse" xlink:href="#linearGradient2994"/><radialGradient id="radialGradient3150" cx="29.053" cy="27.641" r="3.241" fx="29.053" fy="27.641" gradientTransform="matrix(2.923565,0,0,2.029717,-72.107425,-56.090822)" gradientUnits="userSpaceOnUse" xlink:href="#linearGradient2984"/><linearGradient id="linearGradient3153" x1="46" x2="47.688" y1="19.813" y2="22.625" gradientTransform="translate(-16.221397,-28.206652)" gradientUnits="userSpaceOnUse" xlink:href="#linearGradient2974"/><linearGradient id="linearGradient3156" x1="48.906" x2="50.988" y1="17.376" y2="22.251" gradientTransform="translate(-16.221397,-28.206652)" gradientUnits="userSpaceOnUse" xlink:href="#linearGradient2966"/><radialGradient id="radialGradient3160" cx="23.563" cy="40.438" r="19.563" fx="23.563" fy="40.438" gradientTransform="matrix(1,0,0,0.348243,0,26.35543)" gradientUnits="userSpaceOnUse" xlink:href="#linearGradient2865"/><linearGradient id="linearGradient3171" x1="48.906" x2="50.988" y1="17.376" y2="22.251" gradientTransform="translate(-16.221397,-28.206652)" gradientUnits="userSpaceOnUse" xlink:href="#linearGradient2966"/><linearGradient id="linearGradient3173" x1="46" x2="47.688" y1="19.813" y2="22.625" gradientTransform="translate(-16.221397,-28.206652)" gradientUnits="userSpaceOnUse" xlink:href="#linearGradient2974"/><radialGradient id="radialGradient3175" cx="29.053" cy="27.641" r="3.241" fx="29.053" fy="27.641" gradientTransform="matrix(2.923565,0,0,2.029717,-72.107425,-56.090822)" gradientUnits="userSpaceOnUse" xlink:href="#linearGradient2984"/><linearGradient id="linearGradient3177" x1="25.719" x2="25.515" y1="31.047" y2="30.703" gradientTransform="translate(-16.377647,-28.081652)" gradientUnits="userSpaceOnUse" xlink:href="#linearGradient2994"/></defs><metadata id="metadata4"/><g id="layer1"><g id="g6707" display="inline" transform="matrix(0.02364027,0,0,0.02086758,45.15149,35.88943)"><rect id="rect6709" width="1339.633" height="478.357" x="-1559.252" y="-150.697" fill="url(#linearGradient6715)" fill-opacity="1" fill-rule="nonzero" stroke="none" stroke-width="1" color="#000" display="inline" opacity=".402" overflow="visible" visibility="visible" style="marker:none"/><path id="path6711" fill="url(#radialGradient6717)" fill-opacity="1" fill-rule="nonzero" stroke="none" stroke-width="1" d="m -219.61876,-150.68038 c 0,0 0,478.33079 0,478.33079 142.874166,0.90045 345.40022,-107.16966 345.40014,-239.196175 0,-132.026537 -159.436816,-239.134595 -345.40014,-239.134615 z" color="#000" display="inline" opacity=".402" overflow="visible" visibility="visible" style="marker:none"/><path d="m -1559.2523,-150.68038 c 0,0 0,478.33079 0,478.33079 -142.8742,0.90045 -345.4002,-107.16966 -345.4002,-239.196175 0,-132.026537 159.4368,-239.134595 345.4002,-239.134615 z" style="marker:none" id="path6713" fill="url(#radialGradient6719)" fill-opacity="1" fill-rule="nonzero" stroke="none" stroke-width="1" color="#000" display="inline" opacity=".402" overflow="visible" visibility="visible"/></g><g id="g3968" transform="matrix(1.00103,0,0,0.997645,0.12157833,5.330326)"><path id="path6215" fill="url(#linearGradient3973)" fill-opacity="1" fill-rule="evenodd" stroke="#404040" stroke-linecap="round" stroke-linejoin="round" stroke-miterlimit="4" stroke-opacity="1" stroke-width="1.007" d="M 9.57758,15.426169 3.5668796,32.458193 c -0.169748,0.481001 0.2165253,1.01027 0.6858438,1.009795 l 39.3821156,-0.03982 c 0.687951,-6.96e-4 1.175326,-0.770533 0.897052,-1.451205 L 37.832213,15.58921 c -0.190039,-0.464845 -0.829669,-0.865372 -1.447079,-0.865957 l -25.552933,-0.02419 c -0.483363,-4.58e-4 -1.035628,0.106566 -1.254621,0.727108 z" transform="matrix(0.97258,0,0,1.014707,0.392838,-0.586934)"/><path id="path6984" fill="#fff" fill-opacity=".409" fill-rule="evenodd" stroke="none" d="m 4.125,32.875 5.9375,-17.3125 0.875,-0.375 25.5,0.0625 0.875,0.8125 -26,0 -0.375,0.1875 -5.3125,15.5 -1.5,1.125 z" transform="matrix(0.97258,0,0,1.014707,0.392838,-0.586934)"/><path id="path2344" fill="#000" fill-opacity=".129" fill-rule="evenodd" stroke="none" d="m 4.375,33.25 39.25,0.0625 0.5625,-0.6875 -6.8125,-16.9375 6.125,16.125 -38.125,0.125 -1,1.3125 z" transform="matrix(0.97258,0,0,1.014707,0.392838,-0.586934)"/></g><g id="g3952" transform="translate(0.125,5.125)"><path id="path2726" fill="url(#linearGradient3933)" fill-opacity="1" fill-rule="evenodd" stroke="#272840" stroke-dashoffset="0" stroke-linecap="round" stroke-linejoin="round" stroke-miterlimit="4" stroke-opacity="1" stroke-width="1.007" d="M 4.046875,28.34375 C 4.1409134,28.128279 4.3632709,27.972762 4.6875,27.976562 l 2,0.02344 3.1875,3.78125 c 0,0 -0.52501,1.295042 -0.303305,2.122456 0.45608,0.405539 -0.0092,0.674419 -0.0092,0.674419 0,0 -6,0 -6.5,0 -0.5,0 -1.1236997,-1.265085 -0.8125,-2.015625 0.796875,-1.921875 0.9259179,-2.223121 1.796875,-4.21875 z" color="#000" display="inline" overflow="visible" transform="matrix(0.97258,0,0,1.014707,0.392838,-0.586934)" visibility="visible" style="marker:none"/><path id="path2744" fill="#fff" fill-opacity=".485" fill-rule="evenodd" stroke="none" d="M 4.53125,28.53125 2.703125,32.75 l 6.21875,0 L 3.515625,32.21875 5,28.859375 6.453125,28.515625 4.53125,28.53125 z" transform="matrix(0.97258,0,0,1.014707,0.392838,-0.586934)"/></g><g id="g3956" transform="translate(0.125,5.125)"><path id="path2746" fill="url(#linearGradient3935)" fill-opacity="1" fill-rule="evenodd" stroke="#272840" stroke-dashoffset="0" stroke-linecap="round" stroke-linejoin="round" stroke-miterlimit="4" stroke-opacity="1" stroke-width="1.007" d="m 44.499083,28.34375 c -0.09404,-0.215471 -0.316396,-0.370988 -0.640625,-0.367188 l -2,0.02344 -3.1875,3.78125 c 0,0 0.52501,1.295042 0.303305,2.122456 -0.45608,0.405539 0.0092,0.674419 0.0092,0.674419 0,0 6,0 6.5,0 0.5,0 1.1237,-1.265085 0.8125,-2.015625 -0.796875,-1.921875 -0.925918,-2.223121 -1.796875,-4.21875 z" color="#000" display="inline" overflow="visible" transform="matrix(0.97258,0,0,1.014707,0.392838,-0.586934)" visibility="visible" style="marker:none"/><path id="path2750" fill="#fff" fill-opacity=".485" fill-rule="evenodd" stroke="none" stroke-width="1" d="m 43.937892,28.489573 -1.834058,0 -2.872621,3.380854 c 0,0 0.243068,0.817593 0.287262,1.259534 0.04419,0.441942 -0.110485,0.994369 -0.110485,0.994369 0,0 0.662912,-0.90598 0.574524,-1.392116 C 39.894125,32.246078 39.78364,31.84833 39.78364,31.84833 l 2.541165,-3.093592 1.613087,-0.265165 z" color="#000" display="inline" overflow="visible" transform="matrix(0.97258,0,0,1.014707,0.392838,-0.586934)" visibility="visible" style="marker:none"/></g><g id="g3964" transform="translate(0.125,5.125)"><path id="path2752" fill="url(#linearGradient3937)" fill-opacity="1" fill-rule="evenodd" stroke="#272840" stroke-dashoffset="0" stroke-linecap="round" stroke-linejoin="round" stroke-miterlimit="4" stroke-opacity="1" stroke-width=".805" d="m 8.8919123,17.407878 5.4248377,-2.65165 c 0.360029,-0.175982 -0.30637,-0.972272 -0.707107,-0.972272 l -4.331029,0 -1.2374396,3.18198 c -0.1761173,0.452873 0.3311272,1.870872 0.4971845,1.414214 l 0.3535534,-0.972272 z" color="#000" display="inline" overflow="visible" transform="matrix(0.97258,0,0,1.014707,0.392838,-0.586934)" visibility="visible" style="marker:none"/><path id="path2756" fill="#fff" fill-opacity=".485" fill-rule="evenodd" stroke="none" stroke-width="1" d="M 8.5052134,17.89402 C 8.3737613,17.618724 8.3189303,17.31835 8.4941649,16.877554 l 1.0717091,-2.695845 4.010621,0.01105 -3.579727,0.430893 -1.3037293,2.298097 C 8.371541,17.488455 8.4558528,17.547475 8.5052134,17.89402 z" color="#000" display="inline" overflow="visible" transform="matrix(0.97258,0,0,1.014707,0.392838,-0.586934)" visibility="visible" style="marker:none"/></g><g id="g3960" transform="translate(0.125,5.125)"><path id="path2758" fill="url(#linearGradient3939)" fill-opacity="1" fill-rule="evenodd" stroke="#272840" stroke-dashoffset="0" stroke-linecap="round" stroke-linejoin="round" stroke-miterlimit="4" stroke-opacity="1" stroke-width=".805" d="m 38.532564,17.407878 -5.424838,-2.65165 c -0.360029,-0.175982 0.30637,-0.972272 0.707107,-0.972272 l 4.331029,0 1.23744,3.18198 c 0.176117,0.452873 -0.331128,1.870872 -0.497185,1.414214 l -0.353553,-0.972272 z" color="#000" display="inline" overflow="visible" transform="matrix(0.97258,0,0,1.014707,0.392838,-0.586934)" visibility="visible" style="marker:none"/><path id="path2762" fill="#fff" fill-opacity=".485" fill-rule="evenodd" stroke="none" stroke-width="1" d="m 37.875,14.203125 c 0,0 -3.78125,-0.04687 -4.015625,-0.03125 C 33.625,14.1875 33.46875,14.46875 33.46875,14.46875 c 0,0 5.125,2.5 5.25,2.578125 0.125,0.07813 0.25,0.359375 0.25,0.359375 0,0 0.04687,-0.40625 -0.1875,-0.59375 -0.234375,-0.1875 -4.012817,-2.173765 -4.6875,-2.421875 2.107456,-0.177171 2.442708,-0.130208 3.78125,-0.1875 z" color="#000" display="inline" overflow="visible" transform="matrix(0.97258,0,0,1.014707,0.392838,-0.586934)" visibility="visible" style="marker:none"/></g><path id="path3008" fill="url(#radialGradient3160)" fill-opacity="1" fill-rule="evenodd" stroke="none" stroke-width="1" d="m 43.125,40.4375 a 19.5625,6.8125 0 1 1 -39.125,0 19.5625,6.8125 0 1 1 39.125,0 z" color="#000" display="inline" opacity=".316" overflow="visible" transform="matrix(0.616613,0,0,0.440367,8.812145,10.611008)" visibility="visible" style="marker:none"/><g id="g3162" transform="matrix(0.91191545,-0.41037814,0.41037814,0.91191545,15.080602,26.26698)"><path stroke-miterlimit="4" style="marker:none" id="path2960" fill="#cb9022" fill-opacity="1" fill-rule="evenodd" stroke="#5c410c" stroke-dasharray="none" stroke-dashoffset="0" stroke-linecap="butt" stroke-linejoin="miter" stroke-opacity="1" stroke-width="1" d="m 6.789055,4.293348 5.625,-5.625 20.093749,-9.75 c 3.25,-1.25 5.1875,3.375 2.3125,5 l -20.031249,9.375 -8,1 z" color="#000" display="inline" overflow="visible" visibility="visible"/><path id="path2964" fill="url(#linearGradient3171)" fill-opacity="1" fill-rule="evenodd" stroke="none" stroke-width="1" d="m 27.778603,-8.206652 c 0,0 1.4375,0.09375 2,1.34375 0.579493,1.287761 0,2.65625 0,2.65625 l 5.03125,-2.46875 c 0,0 1.452032,-0.881367 0.65625,-2.84375 -0.784912,-1.935577 -2.6875,-1.15625 -2.6875,-1.15625 l -5,2.46875 z" color="#000" display="inline" overflow="visible" visibility="visible" style="marker:none"/><path d="m 27.778603,-8.206652 c 0,0 1.4375,0.09375 2,1.34375 0.579493,1.287761 0,2.65625 0,2.65625 l 2,-1 c 0,0 0.827032,-1.318867 0.21875,-2.6875 -0.625,-1.40625 -2.21875,-1.3125 -2.21875,-1.3125 l -2,1 z" style="marker:none" id="path2962" fill="url(#linearGradient3173)" fill-opacity="1" fill-rule="evenodd" stroke="none" stroke-width="1" color="#000" display="inline" overflow="visible" visibility="visible"/><path d="m 8.216103,3.574598 4.5,-4.5 c 1.5,0.8125 2.28125,2.15625 1.875,3.71875 l -6.375,0.78125 z" style="marker:none" id="path2982" fill="url(#radialGradient3175)" fill-opacity="1" fill-rule="evenodd" stroke="none" stroke-width="1" color="#000" display="inline" overflow="visible" visibility="visible"/><path d="m 9.559853,2.168348 -1.625,1.59375 2.34375,-0.3125 c 0.21875,-0.71875 -0.1875,-1.0625 -0.71875,-1.28125 z" style="marker:none" id="path2992" fill="url(#linearGradient3177)" fill-opacity="1" fill-rule="evenodd" stroke="none" stroke-width="1" color="#000" display="inline" overflow="visible" visibility="visible"/><path d="m 12.716103,-0.956652 1.5625,1.25 15.38734,-7.31867 c -0.444432,-0.856044 -1.241767,-1.084597 -1.903379,-1.162262 l -15.046461,7.230932 z" style="marker:none" id="path3002" fill="#fff" fill-opacity=".364" fill-rule="evenodd" stroke="none" stroke-width="1" color="#000" display="inline" overflow="visible" visibility="visible"/><path d="m 14.591103,2.855848 0.1875,-0.75 15.23109,-7.1296 c 0,0 -0.11016,0.613627 -0.215879,0.74935 l -15.202711,7.13025 z" style="marker:none" id="path3004" fill="#000" fill-opacity=".364" fill-rule="evenodd" stroke="none" stroke-width="1" color="#000" display="inline" overflow="visible" visibility="visible"/></g></g></svg>